<?xml version="1.0" encoding="utf-8" ?><svg xmlns="http://www.w3.org/2000/svg" xmlns:xlink="http://www.w3.org/1999/xlink" width="500" height="500" viewBox="0 0 500 500"><path fill="#65A30D" d="M0 234.359C0.657275 232.637 0.917249 223.905 1.1404 221.382C1.52854 217.352 2.03026 213.333 2.64498 209.331C7.00821 182.49 15.8167 156.565 28.708 132.622C61.1869 72.8297 112.089 30.927 177.527 11.6196C243.24 -7.71837 313.956 0.00352231 373.947 33.0679C392.607 43.4419 409.892 56.1164 425.396 70.7944C428.287 73.489 432.028 76.8776 434.731 79.7084C438.298 83.5497 441.474 88.0466 444.794 92.0604C473.918 127.267 492.54 170.447 498.644 215.693C499.106 219.113 499.014 225.426 500 228.394L500 269.128C498.901 271.898 499.126 279.034 498.54 282.381C496.2 295.751 493.888 308.902 490.021 321.941C469.973 389.126 422.677 444.829 359.634 475.509C338.855 485.569 316.751 492.619 293.985 496.446C289.42 497.239 284.883 497.963 280.32 498.609C277.805 498.965 269.35 499.287 267.65 500L232.872 500C230.594 499.104 223.62 498.986 220.774 498.559C215.786 497.811 210.823 497.049 205.849 496.166C182.616 491.952 160.078 484.545 138.875 474.156C74.6679 442.418 27.2349 384.571 8.69045 315.391C5.07115 301.969 2.51195 288.298 1.17064 274.491C0.872821 271.426 1.0563 265.378 0 262.684L0 234.359ZM110.8 434.451C115.494 435.137 120.605 434.775 125.343 434.753C135.69 434.704 146.03 434.402 156.375 434.288C161.065 434.236 199.942 434.5 200.809 433.987C200.873 433.95 200.925 433.895 200.983 433.848C198.743 430.325 194.983 427.327 193.001 423.062C190.871 418.481 188.673 413.795 187.624 408.773C185.52 397.264 185.726 382.767 188.151 371.34C189.3 365.929 191.557 359.161 193.372 353.919C194.129 351.736 195.795 348.678 196.686 346.48C193.602 344.913 190.333 343.606 187.349 341.985C175.48 335.534 165.418 326.209 158.087 314.862C156.035 311.73 151.837 302.942 150.37 301.271L150.094 301.154C146.368 299.612 139.39 298.505 137.147 294.481C136.147 292.685 138.745 290.443 140.559 290.175C142.92 289.825 145.385 289.777 147.843 289.676C145.506 287.946 135.05 280.734 138.022 277.438C140.902 274.245 147.649 278.072 151.314 278.758C149.755 275.635 143.684 267.501 145.32 265.169C151.109 256.917 164.991 278.438 166.291 280.467C167.179 275.483 174.436 263.993 180.168 269.852C181.288 270.997 178.613 277.088 178.094 278.45C175.469 285.335 175.329 288.97 179.846 294.97C184.652 301.472 191.171 306.51 198.674 309.522C205.232 312.206 209.299 312.053 215.819 313.202C216.659 312.238 217.481 311.258 218.283 310.262C209.753 308.293 198.498 303.741 193.493 296.114C185.913 284.566 201.56 276.069 204.346 265.768C206.255 258.708 207.94 254.938 203.002 248.661C192.081 272.467 189.506 247.68 187.04 246.213C184.387 247.005 179.787 265.443 172.814 251.388C171.113 247.96 171.819 245.44 170.854 243.122C169.703 242.853 168.921 242.852 167.861 243.403C165.741 246.407 166.017 252.835 160.448 253.522C152.841 254.459 153.175 243.539 151.879 239.275C149.748 239.114 147.639 238.923 145.501 238.931C143.868 244.035 143.487 246.855 138.48 249.431L137.704 249.825C129.625 245.579 132.495 241.674 130.257 234.992C129.747 233.469 124.144 230.305 123.088 228.562C117.948 222.631 115.83 216.134 116.105 208.338C116.29 203.075 116.031 201.204 118.745 196.396C122.072 190.503 125.786 186.173 132.938 185.62C137.958 185.556 141.028 188.079 143.432 192.17C148.985 186.144 158.741 182.734 166.075 188.611C168.502 190.556 170.464 195.366 170.8 198.48C180.388 199.854 190.362 202.983 200.19 204.286C201.252 198.127 202.604 190.764 206.457 185.797C200.156 179.973 191.234 171.894 190.868 162.735C190.78 160.528 191.697 156.421 193.363 155.04C200.229 149.727 207.544 161.645 212.064 165.201C216.207 168.46 222.744 174.013 227.718 175.385C239.098 178.524 252.291 182.224 264.1 180.197C269.585 179.256 273.913 176.787 279.447 177.001C286.515 177.409 291.438 181.348 298.849 181.391C309.084 181.514 318.158 178.172 327.684 174.766C337.354 171.309 348.726 164.072 359.274 168.185C365.887 170.763 367.269 173.453 366.638 180.354C365.848 188.995 359.233 195.876 352.937 201.227C347.626 205.636 343.357 207.751 337.078 210.316C337.26 211.616 337.482 212.963 337.555 214.268C346.211 220.578 361.77 223.765 350.776 236.537C346.622 241.362 339.198 248.972 333.491 251.762C341.912 256.381 354.753 264.614 347.934 274.995C343.901 281.134 337.155 286.739 330.995 290.493C336.416 294.32 354.825 305.041 347.931 313.944C345.933 316.524 341.185 319.235 338.492 321.781C341.979 324.28 344.549 326.614 347.589 329.495C354.717 336.25 348.32 340.081 343.304 344.876C342.285 345.849 341.205 346.911 340.173 347.903C344.881 349.195 347.553 350.686 350.072 355.055C351.812 358.033 352.973 361.314 353.492 364.724C355.293 360.885 360.946 353.698 364.88 351.654C375.991 354.68 375.901 361.952 382.304 368.926C384.304 363.542 389.914 351.98 395.061 349.051C398.763 346.945 402.596 350.613 404.287 353.972C433.093 314.071 444.589 264.238 436.174 215.751C434.279 204.388 430.633 193.165 426.303 182.511C413.53 150.174 391.783 122.161 363.623 101.77C337.473 83.1121 306.796 71.8124 274.791 69.0497C259.998 67.7475 243.916 68.1248 228.986 68.1248L147.593 68.197L124.244 68.2187C120.32 68.2173 116.281 68.147 112.386 68.3181C109.973 68.424 107.588 71.3528 107.609 73.6816C107.464 80.3026 107.528 86.9402 107.531 93.5646L107.525 130.615L107.514 243.8L107.502 368.083L107.512 409.313C107.513 415.846 107.497 422.379 107.485 428.911C107.481 431.641 108.947 432.817 110.8 434.451ZM220.895 208.513C220.477 206.125 220.464 203.491 221.44 201.236C222.331 199.832 224.329 197.307 226.233 198.852C229.365 201.394 229.605 204.737 229.376 208.433C233.851 200.629 231.373 187.974 220.295 189.329C210.777 190.92 209.66 198.294 208.04 206.346C211.096 206.831 214.104 207.61 217.177 207.989C218.419 208.142 219.664 208.286 220.895 208.513ZM314.296 336.483C310.961 336.471 305.987 336.682 302.917 337.931C302.85 334.208 301.751 328.694 299.589 325.616C299.722 330.593 300.262 332.708 299.629 338.147C298.928 338.505 298.23 338.87 297.537 339.242C294.588 340.823 291.376 342.927 288.789 345.028C279.505 352.568 268.408 370.084 274.871 382.057C278.644 384.618 280.718 383.606 284.423 381.571C284.74 381.923 285.07 382.265 285.411 382.594C286.796 383.938 288.6 385.448 290.611 385.239C296.216 384.658 297.04 378.777 296.965 374.501C296.944 373.741 296.986 373.215 296.715 372.501C295.975 372.95 295.453 376.379 295.154 377.365C294.536 379.046 292.141 383.667 289.721 381.988C285.817 379.279 288.556 373.283 288.508 369.628C288.503 369.248 288.212 369.202 287.912 369.026C285.773 369.817 284.114 378.862 280.747 377.574C276.881 375.958 278.504 367.989 279.652 365.147C284.871 352.226 297.031 343.526 309.596 338.513C311.193 337.876 312.735 337.213 314.296 336.483ZM154.862 214.582C156.817 213.286 158.054 212.334 159.13 210.166C161.225 205.945 162.275 200.679 159.057 196.726C156.784 195.877 156.179 195.91 153.733 196.019C153.006 196.345 151.455 196.991 150.94 197.546C148.426 200.253 147.404 204.871 148.091 208.438C148.871 212.484 150.16 215.685 154.862 214.582ZM133.423 214.48C138.806 209.165 139.334 195.523 129.534 195.971C129.266 195.984 128.998 196 128.729 196.018C126.919 196.903 126.465 197.368 125.803 199.34C123.943 204.881 125.253 215.876 133.423 214.48ZM223.783 310.319C219.83 314.518 217.221 320.494 213.933 325.245C195.873 351.343 177.633 403.648 204.35 429.973C205.969 431.474 207.698 432.866 209.401 434.273L209.769 434.251C214.982 433.968 220.597 434.542 225.851 434.495C232.095 434.439 238.357 434.716 244.598 434.262C252.583 433.407 265.028 431.556 272.383 429.051C271.235 427.196 269.627 423.599 268.944 421.44C262.097 399.781 264.177 376.764 269.086 354.946C269.985 350.951 271.214 347.218 272.158 343.33C273.66 337.071 274.921 330.756 275.938 324.4C277.721 313.894 278.467 310.635 278.245 299.614C277.943 299.259 278.109 299.328 277.835 299.261C273.948 300.806 266.929 303.917 263.239 305.005C252.815 308.078 234.633 311.607 223.783 310.319ZM207.427 289.983C208.052 291.641 208.644 293.149 210.514 293.752C223.705 297.96 238.81 294.284 251.379 289.468C268.143 283.044 283.801 270.25 290.963 253.483C292.598 249.655 297.962 236.812 291.899 234.408C291.071 234.08 288.957 233.98 288 233.994C288.037 235.914 288.168 238.733 287.938 240.577C287.186 246.588 283.539 255.823 278.203 259.205C269.052 254.326 265.58 254.206 255.319 256.936C249.025 258.611 241.162 269.869 239.637 270.16C239.474 267.886 244.643 261.034 245.652 258.85C233.129 256.355 222.704 269.762 219.897 280.538C219.389 282.489 219.059 290.086 218.248 290.898C214.292 290.264 211.479 289.742 207.427 289.983ZM274.7 188.059C253.703 192.693 259.342 227.257 276.654 224.341C279.855 223.729 281.31 223.459 283.903 221.333C295.356 211.939 293.112 187.204 274.7 188.059Z"/><path fill="#65A30D" d="M304.006 123.852C309.79 122.824 319.815 125.816 323.878 130.126C331.362 138.064 331.243 153.905 330.991 164.181C323.523 167.073 306 173.594 298.252 172.438C292.56 171.31 286.866 168.778 280.96 169.216C273.687 169.756 266.38 171.733 258.998 171.795C255.403 171.825 251.787 171.407 248.188 171.134C242.509 170.937 229.01 166.813 224.463 164.012C222.464 160.289 228.331 144.931 229.276 142.037C233.566 128.892 242.339 123.283 254.732 131.099C256.992 132.524 262.926 135.606 265.914 135.233C272.705 134.387 279.222 130.738 285.491 128.301C291.444 126.022 297.667 124.527 304.006 123.852Z"/><path fill="#65A30D" d="M280.389 197.817C287.409 198.569 287.151 208.53 284.143 213.075C282.811 215.088 281.85 215.555 279.566 215.964C272.983 215.073 272.724 204.57 275.922 200.306C277.273 198.503 278.253 198.148 280.389 197.817Z"/><path fill="#65A30D" d="M295.154 377.365C295.453 376.379 295.975 372.95 296.715 372.501C296.986 373.215 296.944 373.741 296.965 374.501C295.819 376.1 297.034 376.848 296.042 377.645L295.154 377.365Z"/></svg>